{
    "asset" : {
        "generator" : "Khronos glTF Blender I/O v1.4.40",
        "version" : "2.0"
    },
    "scene" : 0,
    "scenes" : [
        {
            "name" : "Scene",
            "nodes" : [
                0
            ]
        }
    ],
    "nodes" : [
        {
            "mesh" : 0,
            "name" : "node_MeshObject-1328424064-PolyPaper23",
            "scale" : [
                1,
                1,
                1.000003695487976
            ],
            "translation" : [
                0.006192999891936779,
                0.13853499293327332,
                0
            ]
        }
    ],
    "materials" : [
        {
            "name" : "BlocksPaper",
            "pbrMetallicRoughness" : {
                "baseColorFactor" : [
                    0.010700984857976437,
                    0.012544063851237297,
                    0.8000000715255737,
                    1
                ],
                "metallicFactor" : 0,
                "roughnessFactor" : 0.6000000238418579
            }
        }
    ],
    "meshes" : [
        {
            "name" : "mesh_m0-PolyPaper23_-329076",
            "primitives" : [
                {
                    "attributes" : {
                        "POSITION" : 0,
                        "NORMAL" : 1,
                        "COLOR_0" : 2
                    },
                    "indices" : 3,
                    "material" : 0
                }
            ]
        }
    ],
    "accessors" : [
        {
            "bufferView" : 0,
            "componentType" : 5126,
            "count" : 1057,
            "max" : [
                0.06525911390781403,
                0.1381680965423584,
                0.06252256035804749
            ],
            "min" : [
                -0.06555581092834473,
                -0.13852131366729736,
                -0.06304797530174255
            ],
            "type" : "VEC3"
        },
        {
            "bufferView" : 1,
            "componentType" : 5126,
            "count" : 1057,
            "type" : "VEC3"
        },
        {
            "bufferView" : 2,
            "componentType" : 5123,
            "count" : 1057,
            "normalized" : true,
            "type" : "VEC4"
        },
        {
            "bufferView" : 3,
            "componentType" : 5123,
            "count" : 1116,
            "type" : "SCALAR"
        }
    ],
    "bufferViews" : [
        {
            "buffer" : 0,
            "byteLength" : 12684,
            "byteOffset" : 0
        },
        {
            "buffer" : 0,
            "byteLength" : 12684,
            "byteOffset" : 12684
        },
        {
            "buffer" : 0,
            "byteLength" : 8456,
            "byteOffset" : 25368
        },
        {
            "buffer" : 0,
            "byteLength" : 2232,
            "byteOffset" : 33824
        }
    ],
    "buffers" : [
        {
            "byteLength" : 36056,
            "uri" : "data:application/octet-stream;base64,"
        }
    ]
}
